<?xml version='1.0' encoding='iso-8859-1'?>
<svg version="1.1" xmlns="http://www.w3.org/2000/svg" viewBox="0 0 463 463" xmlns:xlink="http://www.w3.org/1999/xlink" enable-background="new 0 0 463 463">
  <g>
    <path fill="#666666" d="M395.195,67.805C351.471,24.08,293.336,0,231.5,0S111.529,24.08,67.805,67.805S0,169.664,0,231.5   s24.08,119.971,67.805,163.695S169.664,463,231.5,463s119.971-24.08,163.695-67.805S463,293.336,463,231.5   S438.92,111.529,395.195,67.805z M384.589,384.589C343.697,425.48,289.329,448,231.5,448s-112.197-22.52-153.089-63.411   C37.52,343.697,15,289.329,15,231.5S37.52,119.303,78.411,78.411C119.303,37.52,173.671,15,231.5,15s112.197,22.52,153.089,63.411   C425.48,119.303,448,173.671,448,231.5S425.48,343.697,384.589,384.589z"/>
    <path fill="#666666" d="m301.108,128.633c17.342,10.671 26.892,24.474 26.892,38.867 0,4.143 3.358,7.5 7.5,7.5s7.5-3.357 7.5-7.5c0-19.798-12.085-38.138-34.03-51.643-15.102-9.294-33.743-15.538-53.97-18.274v-10.083c0-4.143-3.358-7.5-7.5-7.5s-7.5,3.357-7.5,7.5v8.721c-2.817-0.134-5.647-0.221-8.5-0.221s-5.683,0.087-8.5,0.221v-8.721c0-4.143-3.358-7.5-7.5-7.5s-7.5,3.357-7.5,7.5v10.083c-20.227,2.736-38.868,8.981-53.97,18.274-21.945,13.505-34.03,31.845-34.03,51.643s12.085,38.138 34.03,51.643c15.102,9.294 33.743,15.538 53.97,18.274v112.869c-17.368-2.576-33.252-8.007-46.108-15.919-17.342-10.671-26.892-24.474-26.892-38.867 0-4.143-3.358-7.5-7.5-7.5s-7.5,3.357-7.5,7.5c0,19.798 12.085,38.138 34.03,51.643 15.102,9.294 33.743,15.538 53.97,18.274v10.083c0,4.143 3.358,7.5 7.5,7.5s7.5-3.357 7.5-7.5v-8.721c2.817,0.134 5.647,0.221 8.5,0.221s5.683-0.087 8.5-0.221v8.721c0,4.143 3.358,7.5 7.5,7.5s7.5-3.357 7.5-7.5v-10.083c20.227-2.736 38.868-8.981 53.97-18.274 21.945-13.505 34.03-31.845 34.03-51.643s-12.085-38.138-34.03-51.643c-15.102-9.294-33.743-15.538-53.97-18.274v-112.869c17.368,2.576 33.252,8.007 46.108,15.919zm-139.216,77.734c-17.342-10.671-26.892-24.474-26.892-38.867s9.55-28.196 26.892-38.867c12.857-7.912 28.74-13.343 46.108-15.919v109.572c-17.368-2.576-33.252-8.007-46.108-15.919zm69.608,145.633c-2.857,0-5.689-0.087-8.5-0.232v-112.989c2.817,0.134 5.647,0.221 8.5,0.221 2.857,0 5.689,0.087 8.5,0.232v112.535c-2.811,0.146-5.643,0.233-8.5,0.233zm69.608-95.367c17.342,10.671 26.892,24.474 26.892,38.867s-9.55,28.196-26.892,38.867c-12.857,7.912-28.74,13.343-46.108,15.919v-109.572c17.368,2.576 33.252,8.007 46.108,15.919zm-61.108-32.412c-2.817-0.134-5.647-0.221-8.5-0.221-2.857,0-5.689-0.087-8.5-0.232v-112.536c2.811-0.145 5.643-0.232 8.5-0.232s5.689,0.087 8.5,0.232v112.989z"/>
  </g>
</svg>
